<mxfile host="app.diagrams.net" agent="Mozilla/5.0 (Windows NT 10.0; Win64; x64) AppleWebKit/537.36 (KHTML, like Gecko) Chrome/133.0.0.0 Safari/537.36" version="26.0.16">
  <diagram name="Page-1" id="9xlMEBWCjZGlRFJOnJp9">
    <mxGraphModel dx="1434" dy="772" grid="1" gridSize="10" guides="1" tooltips="1" connect="1" arrows="1" fold="1" page="1" pageScale="1" pageWidth="850" pageHeight="1100" math="0" shadow="0">
      <root>
        <mxCell id="0" />
        <mxCell id="1" parent="0" />
        <mxCell id="Vqhq42WL_LvxCALewbpw-2" style="edgeStyle=orthogonalEdgeStyle;rounded=0;orthogonalLoop=1;jettySize=auto;html=1;exitX=0.5;exitY=1;exitDx=0;exitDy=0;entryX=0.5;entryY=0;entryDx=0;entryDy=0;" edge="1" parent="1" source="Vqhq42WL_LvxCALewbpw-1" target="Vqhq42WL_LvxCALewbpw-3">
          <mxGeometry relative="1" as="geometry">
            <mxPoint x="410" y="190" as="targetPoint" />
          </mxGeometry>
        </mxCell>
        <mxCell id="Vqhq42WL_LvxCALewbpw-1" value="Lamp not working" style="rounded=1;whiteSpace=wrap;html=1;arcSize=30;" vertex="1" parent="1">
          <mxGeometry x="350" y="70" width="120" height="60" as="geometry" />
        </mxCell>
        <mxCell id="Vqhq42WL_LvxCALewbpw-5" style="edgeStyle=orthogonalEdgeStyle;rounded=0;orthogonalLoop=1;jettySize=auto;html=1;exitX=0.5;exitY=1;exitDx=0;exitDy=0;entryX=0.5;entryY=0;entryDx=0;entryDy=0;" edge="1" parent="1" source="Vqhq42WL_LvxCALewbpw-3" target="Vqhq42WL_LvxCALewbpw-4">
          <mxGeometry relative="1" as="geometry" />
        </mxCell>
        <mxCell id="Vqhq42WL_LvxCALewbpw-7" style="edgeStyle=orthogonalEdgeStyle;rounded=0;orthogonalLoop=1;jettySize=auto;html=1;exitX=1;exitY=0.5;exitDx=0;exitDy=0;" edge="1" parent="1" source="Vqhq42WL_LvxCALewbpw-3">
          <mxGeometry relative="1" as="geometry">
            <mxPoint x="550" y="240" as="targetPoint" />
          </mxGeometry>
        </mxCell>
        <mxCell id="Vqhq42WL_LvxCALewbpw-3" value="PLuged in&amp;nbsp;" style="rhombus;whiteSpace=wrap;html=1;" vertex="1" parent="1">
          <mxGeometry x="355" y="200" width="110" height="80" as="geometry" />
        </mxCell>
        <mxCell id="Vqhq42WL_LvxCALewbpw-11" style="edgeStyle=orthogonalEdgeStyle;rounded=0;orthogonalLoop=1;jettySize=auto;html=1;exitX=1;exitY=0.5;exitDx=0;exitDy=0;" edge="1" parent="1" source="Vqhq42WL_LvxCALewbpw-4">
          <mxGeometry relative="1" as="geometry">
            <mxPoint x="560" y="370" as="targetPoint" />
          </mxGeometry>
        </mxCell>
        <mxCell id="Vqhq42WL_LvxCALewbpw-4" value="Bulb burned out" style="rhombus;whiteSpace=wrap;html=1;" vertex="1" parent="1">
          <mxGeometry x="355" y="330" width="110" height="80" as="geometry" />
        </mxCell>
        <mxCell id="Vqhq42WL_LvxCALewbpw-8" value="plug in the socket" style="rounded=1;whiteSpace=wrap;html=1;" vertex="1" parent="1">
          <mxGeometry x="560" y="210" width="120" height="60" as="geometry" />
        </mxCell>
        <mxCell id="Vqhq42WL_LvxCALewbpw-9" value="Repair lamp" style="rounded=1;whiteSpace=wrap;html=1;" vertex="1" parent="1">
          <mxGeometry x="355" y="480" width="120" height="60" as="geometry" />
        </mxCell>
        <mxCell id="Vqhq42WL_LvxCALewbpw-10" value="replace lightbulb" style="rounded=1;whiteSpace=wrap;html=1;" vertex="1" parent="1">
          <mxGeometry x="570" y="340" width="120" height="60" as="geometry" />
        </mxCell>
        <mxCell id="Vqhq42WL_LvxCALewbpw-12" style="edgeStyle=orthogonalEdgeStyle;rounded=0;orthogonalLoop=1;jettySize=auto;html=1;exitX=0.5;exitY=1;exitDx=0;exitDy=0;entryX=0.458;entryY=0.167;entryDx=0;entryDy=0;entryPerimeter=0;" edge="1" parent="1" source="Vqhq42WL_LvxCALewbpw-4" target="Vqhq42WL_LvxCALewbpw-9">
          <mxGeometry relative="1" as="geometry" />
        </mxCell>
        <mxCell id="Vqhq42WL_LvxCALewbpw-13" value="No" style="text;html=1;align=center;verticalAlign=middle;resizable=0;points=[];autosize=1;strokeColor=none;fillColor=none;" vertex="1" parent="1">
          <mxGeometry x="480" y="198" width="40" height="30" as="geometry" />
        </mxCell>
        <mxCell id="Vqhq42WL_LvxCALewbpw-14" value="Yes" style="text;html=1;align=center;verticalAlign=middle;resizable=0;points=[];autosize=1;strokeColor=none;fillColor=none;" vertex="1" parent="1">
          <mxGeometry x="470" y="328" width="40" height="30" as="geometry" />
        </mxCell>
      </root>
    </mxGraphModel>
  </diagram>
</mxfile>
